<svg xmlns="http://www.w3.org/2000/svg" width="1200" height="760" viewBox="0 0 1200 760" role="img" aria-label="Candy AI visual card">
  <defs><linearGradient id="g" x1="0" x2="1" y1="0" y2="1"><stop offset="0" stop-color="#ff4b8b"/><stop offset="1" stop-color="#7c3aed"/></linearGradient><filter id="shadow" x="-20%" y="-20%" width="140%" height="140%"><feDropShadow dx="0" dy="28" stdDeviation="35" flood-color="#020617" flood-opacity=".35"/></filter></defs>
  <rect width="1200" height="760" rx="48" fill="url(#g)"/>
  <circle cx="1020" cy="120" r="190" fill="#fff" opacity=".13"/><circle cx="130" cy="650" r="260" fill="#fff" opacity=".10"/>
  <g filter="url(#shadow)"><rect x="330" y="92" width="540" height="576" rx="58" fill="#fff" opacity=".96"/>
    <rect x="378" y="148" width="444" height="72" rx="28" fill="#f8fafc"/><circle cx="420" cy="184" r="18" fill="#ff4b8b"/><rect x="456" y="171" width="190" height="17" rx="8" fill="#cbd5e1"/><rect x="456" y="197" width="118" height="12" rx="6" fill="#e2e8f0"/>
    <rect x="378" y="256" width="315" height="54" rx="22" fill="#f1f5f9"/><rect x="508" y="334" width="314" height="54" rx="22" fill="#ff4b8b" opacity=".88"/><rect x="378" y="414" width="390" height="54" rx="22" fill="#f1f5f9"/><rect x="520" y="520" width="220" height="64" rx="32" fill="#7c3aed"/>
  </g>
  <text x="72" y="102" font-family="Inter,Arial,sans-serif" font-size="34" font-weight="800" fill="#fff">Top Pick</text>
  <text x="72" y="650" font-family="Inter,Arial,sans-serif" font-size="74" font-weight="900" fill="#fff">Candy AI</text>
  <text x="76" y="708" font-family="Inter,Arial,sans-serif" font-size="34" font-weight="600" fill="#fff" opacity=".9">Chat + fantasy</text>
</svg>